<svg xmlns="http://www.w3.org/2000/svg" viewBox="0 0 83.87 48"><defs><style>.cls-1{fill:#020000;}</style></defs><title>アセット 1</title><g id="レイヤー_2" data-name="レイヤー 2"><g id="レイヤー_2-2" data-name="レイヤー 2"><path class="cls-1" d="M8,43.05a2.39,2.39,0,0,0-1.71.68,2.36,2.36,0,0,0-.68,1.69A2.26,2.26,0,0,0,8,47.7,2.32,2.32,0,0,0,9.6,47a2.45,2.45,0,0,0,.1-3.27A2.29,2.29,0,0,0,8,43.05Zm0,4.37a1.81,1.81,0,0,1-1.67-2,1.87,1.87,0,0,1,1.67-2.09c1.12,0,1.63,1.05,1.63,2C9.57,46.54,8.87,47.42,7.94,47.42Z"/><path class="cls-1" d="M35.63,43.05a2.39,2.39,0,0,0-1.71.68,2.36,2.36,0,0,0-.68,1.69,2.26,2.26,0,0,0,2.39,2.28A2.31,2.31,0,0,0,37.28,47,2.34,2.34,0,0,0,38,45.35,2.22,2.22,0,0,0,35.63,43.05Zm1.14,3.79a1.46,1.46,0,0,1-1.15.58,1.81,1.81,0,0,1-1.67-2,1.87,1.87,0,0,1,1.67-2.09,1.45,1.45,0,0,1,1.22.62,2.44,2.44,0,0,1,.41,1.41A2.36,2.36,0,0,1,36.77,46.84Z"/><path class="cls-1" d="M25.15,47.48c-.1,0-.21,0-.27-.11L23,42.87l-.52.7v0a.27.27,0,0,1,0,.17h0C22,44.86,21,47.31,21,47.32a.73.73,0,0,1-.42.18c-.13,0-.27,0-.27.16v0h1.58v0c0-.14-.14-.14-.26-.17s-.22-.07-.22-.16a9.3,9.3,0,0,1,.41-1.13h1.76c.27.61.48,1.15.48,1.15a.13.13,0,0,1,0,.06,0,0,0,0,1,0,0s-.11.07-.2.09-.27,0-.27.16v0H25.4v0C25.4,47.52,25.27,47.52,25.15,47.48ZM22,45.8c.22-.54.48-1.14.71-1.67l.72,1.67Z"/><path class="cls-1" d="M30,43.06H28v0c0,.15.11.12.19.12s.36.06.36.84v2.63c0,.79-.21.79-.36.8s-.19,0-.19.16v0h1.71c2,0,3-.78,3-2.33S31.76,43.06,30,43.06ZM31.28,47a2.12,2.12,0,0,1-1.71.42c-.36,0-.38-.29-.38-.73V44.06c0-.43,0-.7.38-.74A2.17,2.17,0,0,1,31.28,47Z"/><path class="cls-1" d="M25.74,43.1c0,.15.1.12.18.14s.36.11.36.9v2.48c0,.79-.22.83-.36.86s-.18,0-.18.18v0H27.5v0c0-.15-.1-.17-.18-.18s-.36-.07-.36-.86V44.14c0-.79.22-.87.36-.9s.18,0,.18-.14v0H25.74Z"/><path class="cls-1" d="M3.47,43.1c0,.15.11.12.19.13s.36.08.36.87v1H1.49v-1c0-.79.22-.85.36-.87s.19,0,.19-.13v0H.27v0c0,.15.11.12.18.13s.36.08.36.87v2.55c0,.79-.22.86-.36.87s-.18,0-.18.13v0H2v0c0-.15-.11-.12-.19-.13s-.36-.08-.36-.87V45.49H4v1.16c0,.79-.22.86-.36.87s-.19,0-.19.13v0H5.23v0c0-.15-.11-.12-.19-.13s-.36-.08-.36-.87V44.1c0-.79.22-.85.36-.87s.19,0,.19-.13v0H3.47Z"/><path class="cls-1" d="M14.87,47.49a.57.57,0,0,1-.28-.14l-.95-1.09c-.4-.45-.79-.88-1-1.11a0,0,0,0,1,0,0,.23.23,0,0,1,.07-.12s2-1.72,2.07-1.75.35,0,.35-.15v0H13.44v0c0,.19.53.08.53.26s-2,1.72-2,1.72a.21.21,0,0,1-.16.06s-.05-.05-.06-.07h0v-1c0-.78.21-.84.36-.84s.19,0,.19-.12v0H10.56v0c0,.15.11.12.19.12s.36.06.36.84v2.63c0,.79-.21.84-.36.84s-.19,0-.19.12v0h1.76v0c0-.15-.11-.12-.19-.12s-.36-.06-.36-.84v-.87a.21.21,0,0,1,.08-.14l.1-.08a.12.12,0,0,1,.15,0c.46.46,1.44,1.59,1.61,1.78s0,.07,0,.07-.1,0-.15.05-.27,0-.27.15v0h1.76v0C15.11,47.52,15,47.53,14.87,47.49Z"/><path class="cls-1" d="M19.79,47.49a.57.57,0,0,1-.28-.14l-.95-1.09c-.4-.45-.79-.88-1-1.11a.05.05,0,0,1,0,0A.22.22,0,0,1,17.6,45s2-1.72,2.07-1.75.35,0,.35-.15v0H18.36v0c0,.19.54.08.54.26s-2,1.72-2,1.72a.21.21,0,0,1-.16.06s0-.05-.05-.07h0v-1c0-.78.21-.84.36-.84s.19,0,.19-.12v0H15.49v0c0,.15.11.12.19.12s.36.06.36.84v2.63c0,.79-.21.84-.36.84s-.19,0-.19.12v0h1.76v0c0-.15-.11-.12-.19-.12s-.36-.06-.36-.84v-.87a.21.21,0,0,1,.08-.14l.1-.08a.12.12,0,0,1,.15,0c.46.46,1.44,1.59,1.61,1.78s0,.07,0,.07-.1,0-.15.05-.27,0-.27.15v0H20v0C20,47.52,19.91,47.53,19.79,47.49Z"/><path class="cls-1" d="M69.94,45.13l-.6-.34c-.23-.13-.62-.4-.62-.79,0-.21.08-.7.85-.7.41,0,.66.13.77.41s.33.26.33.26l-.13-.83h0a1.93,1.93,0,0,0-.84-.14c-.95,0-1.59.49-1.59,1.21a1.48,1.48,0,0,0,.84,1.21l.72.42a1,1,0,0,1,.59.91c0,.36-.28.73-.9.73a1.19,1.19,0,0,1-1.16-.69c-.14-.41-.3-.31-.3-.31l.15,1h0a2.72,2.72,0,0,0,1.2.26c1,0,1.66-.52,1.66-1.3A1.55,1.55,0,0,0,69.94,45.13Z"/><path class="cls-1" d="M43.51,43.11c0,.15.13.12.23.14s.5.11.5.9v1.79a1.37,1.37,0,0,1-1.39,1.46,1.31,1.31,0,0,1-1.29-1.46V44.14c0-.79.26-.87.44-.9s.21,0,.21-.14v0H40.36v0c0,.15.1.12.18.14s.36.11.36.9v1.79c0,1.75,1.93,1.77,2,1.77a1.74,1.74,0,0,0,1.76-1.77V44.14c0-.79.23-.87.39-.9s.19,0,.19-.14v0H43.51Z"/><path class="cls-1" d="M51.11,43.11c0,.15.1.12.18.13s.36.09.36.87v2.55c0,.79-.22.86-.36.87s-.18,0-.18.13v0h1.76v0c0-.15-.11-.12-.19-.13s-.36-.08-.36-.87V44.11c0-.79.22-.86.36-.87s.19,0,.19-.13v0H51.11Z"/><path class="cls-1" d="M71.93,43.11c0,.15.11.12.19.13s.36.09.36.87v2.55c0,.79-.22.86-.36.87s-.19,0-.19.13v0h1.76v0c0-.15-.11-.12-.19-.13s-.36-.08-.36-.87V44.11c0-.79.22-.86.36-.87s.19,0,.19-.13v0H71.93Z"/><path class="cls-1" d="M57,43.11c0,.15.15.14.29.17s.25.07.25.16-.74,1.81-1.33,3.07l-1.32-3.12s0-.06,0-.07.11-.06.19-.07.27,0,.27-.14v0H53.58v0c0,.24.41.07.52.3l2,4.36.06-.15L58,43.44c.06-.14.23-.15.32-.18s.19,0,.19-.16v0H57Z"/><path class="cls-1" d="M82.4,43.06v0c0,.15.14.14.27.17s.24,0,.23.16-.74,1.29-1.06,1.77l-.11.17-1.11-2a.12.12,0,0,1,0,0,0,0,0,0,1,0,0s.11-.06.19-.07.27,0,.27-.14v0H79.32v0c0,.14.13.13.25.16a.43.43,0,0,1,.26.14l1.37,2.44a.39.39,0,0,1,0,.15v.67c0,.79-.22.86-.36.87s-.18,0-.18.13v0h1.76v0c0-.15-.11-.12-.19-.13s-.36-.08-.36-.87V45.9a.51.51,0,0,1,.06-.22l1.37-2.25a.46.46,0,0,1,.32-.17c.09,0,.19,0,.19-.16v0Z"/><path class="cls-1" d="M48.74,43.11c0,.15.12.12.22.14s.47.11.47.9v2.21l-2.74-3.29H45.54v0c0,.15.12.12.23.14s.47.11.47.9v2.44c0,.79-.23.89-.39.93s-.19,0-.19.15v0h1.65v0c0-.15-.12-.13-.22-.15s-.47-.14-.47-.93v-2.5l3.1,3.77.1.14v0h0V44.14c0-.79.23-.87.39-.9s.19,0,.19-.14v0H48.74Z"/><path class="cls-1" d="M62.19,46.82c-.11.27-.23.57-.66.57H60.3a.28.28,0,0,1-.28-.27V45.57h.46c.79,0,.83.27.86.47s0,.23.18.23h0V44.5h0c-.15,0-.17.12-.18.22s-.07.47-.86.47H60V43.78a.38.38,0,0,1,.35-.41h1.08a.47.47,0,0,1,.54.44c0,.14.07.28.23.28h0v-1H58.81v0c0,.15.11.16.19.16s.36,0,.36.8V46.7c0,.78-.2.79-.36.8s-.19,0-.19.16v0h3.53l.2-1.22h-.06C62.33,46.48,62.26,46.64,62.19,46.82Z"/><path class="cls-1" d="M74.6,43.06l-.08,1h.05c.15,0,.22-.13.29-.27a.66.66,0,0,1,.66-.46h.72a1.17,1.17,0,0,1,.15.73v2.56c0,.79-.22.86-.36.87s-.19,0-.19.13v0h1.76v0c0-.15-.11-.12-.19-.13s-.36-.08-.36-.87V44.1a1.17,1.17,0,0,1,.15-.73h.72a.65.65,0,0,1,.66.46c.07.14.14.27.29.27h.05l-.08-1Z"/><path class="cls-1" d="M66.84,47.15a18.36,18.36,0,0,1-1.13-1.68s0-.05,0-.06h0c.76-.21,1.13-.58,1.13-1.12s-.26-1.22-2-1.22H63.12v0c0,.15.11.16.19.16s.36,0,.36.8v2.59c0,.79-.22.9-.36.92s-.19-.07-.19.08v0h1.76v0c0-.15-.11-.07-.19-.08s-.36-.13-.36-.92V45.53s0,0,0,0h.39a.66.66,0,0,1,.45.33l.89,1.34a2.19,2.19,0,0,0,1.65.77A3.77,3.77,0,0,1,66.84,47.15Zm-2.13-1.93h-.34s0,0,0,0V43.47s.08-.12.37-.13a1.43,1.43,0,0,1,1.1.29.92.92,0,0,1,.28.66C66.09,44.44,66,45.22,64.71,45.22Z"/><path class="cls-1" d="M52.14,36.41c3.86,0,7.21-2,8.51-4.67.44-1,.43-1.71-.1-2-.92-.46-1.49.22-2.21,1.55-.67,1.07-2.38,4.09-6.21,4.09-5.38,0-9.25-6.65-9.26-17S46.76,1.49,52.14,1.49s9.26,6.58,9.26,17h0c0,5.16-1.55,10.15-5.53,10.15a5.66,5.66,0,0,1-4.35-2.05,8.36,8.36,0,0,1-1.21-5,9.32,9.32,0,0,1,.09-1.25c.08-.4.24-.65.81-.63h0c.29,0,.61.06.92.08h0c.31,0,.63,0,.92-.08h0c.57,0,.73.23.81.63A9.3,9.3,0,0,1,54,21.56a10.59,10.59,0,0,1-1.21,5.1c-.09.14.36.45.52.3a8.37,8.37,0,0,0,1.81-6.87.05.05,0,0,0,0,0c-.08-.62.18-1,.85-1.23h0a8.19,8.19,0,0,0,.84-.42,8.4,8.4,0,0,0,4-5.34.6.6,0,0,0-.43-.75,8.41,8.41,0,0,0-6.62.79,8.32,8.32,0,0,0-1.08.75h0a1,1,0,0,1-.51.25h0a1,1,0,0,1-.51-.25h0a8.31,8.31,0,0,0-1.08-.75,8.4,8.4,0,0,0-6.62-.79.6.6,0,0,0-.43.75,8.4,8.4,0,0,0,4,5.34,8.2,8.2,0,0,0,.84.42h0c.67.24.94.62.85,1.23a.05.05,0,0,0,0,0,8.38,8.38,0,0,0-.13,1.46,8.64,8.64,0,0,0,1.67,5.63,6.38,6.38,0,0,0,5.05,2.32,6.87,6.87,0,0,0,4.54-1.68c1.19-1,3.43-4,3.39-9.43h0C63.72,8.28,59.41.49,52.14.49S40.56,8.28,40.56,18.4q0,.46,0,.92c0,.08,0,.17,0,.25s0,.45,0,.67c0,.06,0,.13,0,.19,0,.25,0,.5.05.74v0c.69,8.34,4.48,15.2,11.46,15.2ZM53.27,15a10.62,10.62,0,0,1,1.1-.74,10.74,10.74,0,0,1,5.27-1.47h.08a2.49,2.49,0,0,1,.34,0,.3.3,0,0,1,.23.12.24.24,0,0,1,0,.22,10.35,10.35,0,0,1-4.11,4.23,8.56,8.56,0,0,1-.84.43.82.82,0,0,1-1.11-.42,8.06,8.06,0,0,0-.93-1.49h0A.56.56,0,0,1,53.27,15Zm-1.14,1.2h0a7.42,7.42,0,0,1,1.33,2.11.09.09,0,0,1,0,.11,3.74,3.74,0,0,1-1.28.2h0a3.72,3.72,0,0,1-1.28-.2.09.09,0,0,1,0-.11A7.41,7.41,0,0,1,52.14,16.16Zm-3.19,1.6a8.58,8.58,0,0,1-.84-.43A10.35,10.35,0,0,1,44,13.1a.24.24,0,0,1,0-.22.3.3,0,0,1,.23-.12,2.48,2.48,0,0,1,.34,0h.08a10.74,10.74,0,0,1,5.27,1.47A10.59,10.59,0,0,1,51,15a.56.56,0,0,1,0,.88h0a8.07,8.07,0,0,0-.93,1.49A.82.82,0,0,1,48.95,17.76Z"/><path class="cls-1" d="M0,36.17H11.88c-1.8-.09-5-.94-5-2.73V1c0-.31-.26-.37-.52-.24-2,1-3.68,2.31-6,3.63,3-.88,4.72-.86,4.72.92V33.44C5.1,35.24,2.27,36,0,36.17Z"/><path class="cls-1" d="M66.29,26.81v6.28c0,1.52.66,2.38,2.09,2.38a2.5,2.5,0,0,0,2.5-1.86,2.36,2.36,0,0,1-1.91,1,1.33,1.33,0,0,1-1.48-1.48V26.81a.33.33,0,0,1,.32-.33h2.92v-.63H67.81a.33.33,0,0,1-.33-.32v-2.9c-.13,1.79-1,3.45-2.85,3.85H66A.33.33,0,0,1,66.29,26.81Z"/><path class="cls-1" d="M79.22,35.1h4.22c-1,0-1.47-.43-1.47-1.19V28.36c0-1.31-.45-2.87-2.48-2.87a4.2,4.2,0,0,0-3.15,1.65h0c-.14.15-.27.16-.27,0V20.49l-2.58.7c1.28-.12,1.45.63,1.45,1.15V33.9c0,.84-.55,1.19-1.41,1.19h4.08c-.92,0-1.54-.41-1.54-1.19V28.53a1.43,1.43,0,0,1,.32-.72,3.62,3.62,0,0,1,2.67-1.48c1.43,0,1.78,1.31,1.78,2.48v5.1C80.85,34.74,80.1,35.1,79.22,35.1Z"/><path class="cls-1" d="M25.87,35.44c-4,0-5.83-2.19-6.2-5.5-.13-1.51-.41-2.38-1.43-2.28-.59.06-1,.68-1,1.82.2,3.92,3.91,7.17,8.92,7.17,5.88,0,9.69-4.3,9.69-11.25S32.22,14,26.08,14.19a10.31,10.31,0,0,0-6.55,2.94c-.53.56-.94.4-.88-.52L19.93,5.53h0c.3-1.72,1.27-2.15,3.25-2.18H34.35s.24-.09.24-.19c.19-.85.65-2.51.88-3.17a3.1,3.1,0,0,1-2.52,1.15H19.8a.39.39,0,0,0-.43.38l-2,17.25v.33a1.07,1.07,0,0,0,.38,1,.68.68,0,0,0,.33.09,1.21,1.21,0,0,0,.9-.57,7.19,7.19,0,0,1,6.79-3.83c4.81,0,7.77,4.25,7.77,9.74C33.57,31.92,30.4,35.44,25.87,35.44Z"/></g></g></svg>